<svg xmlns="http://www.w3.org/2000/svg" viewBox="0 0 128 160" x="0px" y="0px"><path d="M75.9,53.44c.09,0,.17,0,.26-.01,.86-.08,1.57-.58,1.89-1.33,.41-.96,.29-1.89-.33-2.61-.27-.31-.74-.35-1.06-.08-.31,.27-.35,.74-.08,1.06,.18,.21,.32,.49,.09,1.04-.14,.32-.43,.41-.66,.43-.44,.04-.89-.16-1.11-.49-.33-.48-.11-1.13,.12-1.58,.53-1.02,1.15-1.64,1.78-1.77,.68-.14,1.25,.3,1.27,.31,.32,.26,.79,.22,1.05-.1,.27-.32,.22-.79-.09-1.06-.04-.04-1.11-.91-2.51-.63-1.11,.22-2.06,1.08-2.83,2.55-.81,1.55-.37,2.61-.04,3.11,.49,.72,1.35,1.16,2.24,1.16Z"/><path d="M60.54,42.63c-2.7,.13-3.83,1.43-3.95,1.58-.34,.42-.28,1.03,.14,1.38,.19,.16,.41,.23,.64,.23,.28,0,.56-.12,.76-.34,.03-.03,.71-.77,2.5-.86,1.83-.09,2.67,.58,2.69,.6,.41,.37,1.04,.33,1.41-.08,.37-.41,.33-1.04-.08-1.41-.14-.13-1.45-1.23-4.13-1.11Z"/><path d="M45.67,44.04c1.73,0,2.64,1.13,2.69,1.19,.2,.26,.5,.4,.8,.4,.21,0,.42-.06,.6-.2,.44-.33,.54-.96,.21-1.4-.06-.08-1.51-1.99-4.29-1.99-2.34-.05-3.65,1.6-3.71,1.67-.34,.43-.27,1.05,.15,1.39,.42,.34,1.05,.28,1.4-.14,.03-.04,.79-.92,2.15-.92h0Z"/><path d="M45.84,50c.92,0,1.67-1.01,1.67-2.26s-.75-2.26-1.67-2.26-1.67,1.01-1.67,2.26,.75,2.26,1.67,2.26Z"/><path d="M60.69,45.47c-.92,0-1.67,1.01-1.67,2.26s.75,2.26,1.67,2.26,1.67-1.01,1.67-2.26-.75-2.26-1.67-2.26Z"/><path d="M59.25,64.5c-.75,.52-2.19,1.42-3.97,2.04-1.51,.52-3.18,.92-4.18,1.13-.38,.08-.49,.57-.18,.8,1.04,.78,3.17,1.91,5.94,.96,2.99-1.02,3.19-3.39,3.08-4.61-.03-.34-.42-.52-.7-.32Z"/><path d="M83.8,19.89c-.81-1.54-2.02-2.96-3.79-4.12-6.94-4.52-20.19-.19-27.28,.76-7.1,.94-4.49-4.35-12.01-2.87-2.75,.54-2.83,6.46-2.83,6.46,0,0-4.72-2.34-6.99,1.57-1.25,2.15-.95,4.2,.17,5.96-11.93,9.63-19.57,24.36-19.57,40.85,0,28.95,23.55,52.5,52.5,52.5s52.5-23.55,52.5-52.5c0-21.94-13.54-40.77-32.7-48.61Zm30.7,48.61c0,8.97-2.36,17.39-6.47,24.7-4.17-6.84-12.83-11.39-22.74-11.39h-9.29v-14.71s6.74-3.73,8.54-15.93c1.55-10.47-.94-16.7-.94-16.7,0,0,2.65-6.21,1.2-11.97,17.5,7.94,29.7,25.57,29.7,46Zm-43.21-11.79c.54,.54,1.5,1.19,2.71,1.6v24.76c-1.95,5.06-7.12,6.96-11.27,6.23-2.77-.49-5.73-2.34-5.73-6.05v-6.5c3.68-.08,7.34-.62,10.19-1.78,.51-.21,.75-.8,.55-1.31-.21-.51-.8-.75-1.31-.54-2.91,1.19-6.7,1.65-10.41,1.63h-.04c-5.9-.02-11.62-1.23-13.38-2.55-2.14-1.61-3.16-8.41-2.85-16.86,1.33,.86,2.89,1.36,4.56,1.36,1.48,0,2.87-.39,4.1-1.08-.6,1.59-1.09,3.05-1.15,3.71-.09,.95,.18,1.8,.79,2.48,1.46,1.6,4.35,1.64,4.68,1.64,.55,0,.99-.45,.99-1,.01-.55-.44-1-.99-1-.6,0-2.47-.19-3.2-.99-.23-.26-.32-.55-.28-.94,.09-.92,1.73-5.06,2.96-8,.13-.27,.24-.54,.35-.82,.01-.04,.03-.08,.04-.11,.01-.03,.01-.05,.02-.07,.35-1.02,.55-2.12,.55-3.27,0-5.21-3.97-9.45-8.86-9.45-.75,0-1.48,.11-2.17,.3,.44-1.5,.94-2.87,1.49-4.1,1.99,.35,4.28,.6,6.85,.66,8.37,.19,14.98,.76,16.12,1.7,.49,.41,.92,1.91,1.39,3.6-1.53-1.35-3.49-2.16-5.63-2.16-4.89,0-8.86,4.24-8.86,9.45s3.97,9.45,8.86,9.45,8.87-4.24,8.87-9.45c0-.49-.05-.97-.12-1.44,.15,.01,.29,0,.44-.02,.16-.16,.33-.34,.51-.51,.05,.18,.14,.36,.3,.49,.43,.35,1.06,.29,1.41-.13,.71-.85,2.93-3.06,4.77-3.01,.65,.01,1.17,.32,1.66,.97,1.43,1.91,1.93,5.16,1.23,8.1-.5,2.14-1.55,3.74-2.88,4.41-3.28,1.64-5.74-.72-5.84-.82-.39-.39-1.03-.39-1.42,0-.39,.39-.39,1.03,0,1.42Zm-31.42-3.79c.19-3.14,.56-6.44,1.12-9.76,.15-.95,.34-1.85,.54-2.71,.85-.41,1.79-.65,2.78-.65,3.78,0,6.86,3.34,6.86,7.45,0,.95-.17,1.85-.46,2.68-.09,.21-.22,.52-.38,.89-1.17,2.31-3.43,3.88-6.02,3.88-1.7,0-3.25-.67-4.44-1.78Zm29.36-5.67c0,4.11-3.08,7.45-6.87,7.45s-6.86-3.34-6.86-7.45,3.08-7.45,6.86-7.45,6.87,3.34,6.87,7.45ZM32.34,29.2c.79,.79,1.72,1.48,2.71,2.06,.98,.57,3.23,1.56,6.57,2.33-.72,1.69-1.32,3.55-1.82,5.54-2.6,1.65-4.36,4.67-4.36,8.12,0,2.48,.91,4.73,2.38,6.42-.49,8.68,.17,17.57,3.58,20.13,2.14,1.6,7.73,2.82,13.6,2.95v5.06h-6.81c-10.75,0-20.37,5.49-23.94,13.67l-1.14,2.61c-6.04-8.32-9.61-18.54-9.61-29.59,0-15.86,7.36-30.04,18.84-39.3Zm6.75,13.22c-.02,.14-.05,.27-.08,.42-.37,2.26-.71,4.82-.95,7.49-.39-.94-.62-1.98-.62-3.08,0-1.84,.63-3.53,1.65-4.83Zm24.91,76.58c-15.98,0-30.24-7.47-39.5-19.09l1.58-3.63c3.26-7.46,12.15-12.47,22.11-12.47h5.98c-.87,1.24-1.86,3.4-1.74,6.68,.2,5.49,2.64,8.37,4.94,8.37h.01c3.03,0,5.51-3.8,6.76-6.2,1.3,2.2,3.73,5.57,6.49,5.57,.08,0,.16-.01,.24-.01,3.43-.25,5.47-4.78,5.92-6.93,.63-2.99,.07-5.85-.4-7.48h8.9c9.66,0,18.01,4.59,21.56,11.37-8.93,14.29-24.79,23.82-42.85,23.82Z"/><text x="0" y="143" fill="#000000" font-size="5px" font-weight="bold" font-family="'Helvetica Neue', Helvetica, Arial-Unicode, Arial, Sans-serif">Created by Andi Nur Abdillah</text><text x="0" y="148" fill="#000000" font-size="5px" font-weight="bold" font-family="'Helvetica Neue', Helvetica, Arial-Unicode, Arial, Sans-serif">from the Noun Project</text></svg>